<svg xmlns="http://www.w3.org/2000/svg" width="80" height="80">
  <path id="edge_r" d="M55.83 0v12.71h11.29V67.3H55.83V80H80V0Z" fill="#f0f0f0" />
  <path id="edge_l" d="M24.17 80V67.29H12.88V12.7h11.29V0H0v80z" fill="#f0f0f0" />
  <path d="M26.97 46.25v-1.82a10.24 10.26 0 0 1 .78-4.3 11.8 11.83 0 0 1 2.75-3.59 15.4 15.43 0 0 0 2.5-2.96 5.9 5.91 0 0 0 .73-2.95 3.47 3.47 0 0 0-.87-2.53 3.36 3.37 0 0 0-2.47-.86 8.7 8.7 0 0 0-3.1.6A20.66 20.7 0 0 0 24 29.6l-2.45-5.33A21.08 21.12 0 0 1 26.1 22a14.65 14.68 0 0 1 4.86-.83 9.89 9.9 0 0 1 7.14 2.41 8.66 8.68 0 0 1 2.48 6.52 10.46 10.48 0 0 1-1.2 5.3 20.24 20.28 0 0 1-3.56 4.34 19.7 19.73 0 0 0-1.84 2 5.05 5.06 0 0 0-.83 1.56 6.95 6.96 0 0 0-.2 1.77v1.23zm-1.08 8.37a4.12 4.12 0 0 1 1.13-3.16 4.43 4.43 0 0 1 3.06-1.11 4.12 4.12 0 0 1 2.96 1.03 4.18 4.18 0 0 1 1.06 3.24 4.28 4.29 0 0 1-1.06 3.12 4.07 4.08 0 0 1-2.96 1.08 4.32 4.33 0 0 1-2.95-1.08 4.04 4.05 0 0 1-1.24-3.12zm25.59-8.37H45.5l-1.07-24.6h8.19zm-7.05 8.37a4.18 4.18 0 0 1 1.1-3.16 4.22 4.23 0 0 1 2.98-1.11 3.72 3.73 0 0 1 4.05 4.21 4.18 4.18 0 0 1-1.13 3.18 4.1 4.1 0 0 1-2.95 1.08 3.84 3.84 0 0 1-4.05-4.2z" fill="#f0f0f0"/>
</svg>
