<svg xmlns="http://www.w3.org/2000/svg" width="400" height="400">
  <path d="M259 50v48h43v205h-43v47h91V50ZM141 350v-48H98V98h43V50H50v300z" fill="#f0f0f0"/>
  <path d="M151 223v-6a38 38 0 0 1 3-16 44 44 0 0 1 11-14 58 58 0 0 0 9-11 23 23 0 0 0 3-11 13 13 0 0 0-4-9 13 13 0 0 0-9-4 33 33 0 0 0-12 2 77 78 0 0 0-12 7l-9-20a79 80 0 0 1 17-8 55 55 0 0 1 18-3 37 38 0 0 1 27 9 32 32 0 0 1 9 24 39 39 0 0 1-4 20 76 76 0 0 1-14 16 74 74 0 0 0-6 8 19 19 0 0 0-3 5 26 26 0 0 0-1 7v4zm-4 32a16 16 0 0 1 4-12 17 17 0 0 1 12-4 16 16 0 0 1 11 4 16 16 0 0 1 4 12 16 16 0 0 1-4 12 15 15 0 0 1-11 4 17 17 0 0 1-11-4 15 15 0 0 1-5-12zm96-32h-23l-3-92h30zm-26 32a16 16 0 0 1 4-12 16 16 0 0 1 11-4 14 14 0 0 1 15 16 16 16 0 0 1-4 12 16 16 0 0 1-11 4 14 14 0 0 1-15-16z" fill="#f0f0f0"/>
</svg>
